<mxfile host="app.diagrams.net" agent="Mozilla/5.0 (X11; Linux x86_64) AppleWebKit/537.36 (KHTML, like Gecko) Chrome/125.0.0.0 Safari/537.36" version="24.7.7">
  <diagram name="Halaman-1" id="7UvVyIgD088SBnQl0Awn">
    <mxGraphModel dx="1066" dy="613" grid="1" gridSize="10" guides="1" tooltips="1" connect="1" arrows="1" fold="1" page="1" pageScale="1" pageWidth="827" pageHeight="1169" math="0" shadow="0">
      <root>
        <mxCell id="0" />
        <mxCell id="1" parent="0" />
        <mxCell id="NIUo2YLflTtgTmz2Ka_B-4" value="" style="rounded=0;whiteSpace=wrap;html=1;" vertex="1" parent="1">
          <mxGeometry x="299" y="120" width="230" height="440" as="geometry" />
        </mxCell>
        <mxCell id="NIUo2YLflTtgTmz2Ka_B-6" value="tabungan" style="text;html=1;align=center;verticalAlign=middle;whiteSpace=wrap;rounded=0;" vertex="1" parent="1">
          <mxGeometry x="380" y="140" width="60" height="30" as="geometry" />
        </mxCell>
        <mxCell id="NIUo2YLflTtgTmz2Ka_B-7" style="edgeStyle=orthogonalEdgeStyle;rounded=0;orthogonalLoop=1;jettySize=auto;html=1;exitX=0.5;exitY=1;exitDx=0;exitDy=0;" edge="1" parent="1" source="NIUo2YLflTtgTmz2Ka_B-4" target="NIUo2YLflTtgTmz2Ka_B-4">
          <mxGeometry relative="1" as="geometry" />
        </mxCell>
        <mxCell id="NIUo2YLflTtgTmz2Ka_B-8" value="Login MyAdmin" style="ellipse;whiteSpace=wrap;html=1;" vertex="1" parent="1">
          <mxGeometry x="350" y="180" width="120" height="80" as="geometry" />
        </mxCell>
        <mxCell id="NIUo2YLflTtgTmz2Ka_B-10" value="form tabungan" style="ellipse;whiteSpace=wrap;html=1;" vertex="1" parent="1">
          <mxGeometry x="350" y="270" width="120" height="80" as="geometry" />
        </mxCell>
        <mxCell id="NIUo2YLflTtgTmz2Ka_B-14" value="pencarian nama" style="ellipse;whiteSpace=wrap;html=1;" vertex="1" parent="1">
          <mxGeometry x="354" y="360" width="120" height="80" as="geometry" />
        </mxCell>
        <mxCell id="NIUo2YLflTtgTmz2Ka_B-16" value="tambah data" style="ellipse;whiteSpace=wrap;html=1;" vertex="1" parent="1">
          <mxGeometry x="354" y="450" width="120" height="80" as="geometry" />
        </mxCell>
        <mxCell id="NIUo2YLflTtgTmz2Ka_B-17" value="Siswa" style="shape=umlActor;verticalLabelPosition=bottom;verticalAlign=top;html=1;outlineConnect=0;" vertex="1" parent="1">
          <mxGeometry x="700" y="260" width="80" height="180" as="geometry" />
        </mxCell>
        <mxCell id="NIUo2YLflTtgTmz2Ka_B-19" value="Admin" style="shape=umlActor;verticalLabelPosition=bottom;verticalAlign=top;html=1;outlineConnect=0;" vertex="1" parent="1">
          <mxGeometry x="40" y="250" width="80" height="180" as="geometry" />
        </mxCell>
        <mxCell id="NIUo2YLflTtgTmz2Ka_B-39" value="" style="endArrow=none;html=1;rounded=0;entryX=0;entryY=0.5;entryDx=0;entryDy=0;" edge="1" parent="1" target="NIUo2YLflTtgTmz2Ka_B-8">
          <mxGeometry width="50" height="50" relative="1" as="geometry">
            <mxPoint x="130" y="310" as="sourcePoint" />
            <mxPoint x="150" y="540" as="targetPoint" />
          </mxGeometry>
        </mxCell>
        <mxCell id="NIUo2YLflTtgTmz2Ka_B-40" value="" style="endArrow=none;html=1;rounded=0;" edge="1" parent="1" source="NIUo2YLflTtgTmz2Ka_B-14">
          <mxGeometry width="50" height="50" relative="1" as="geometry">
            <mxPoint x="630" y="370" as="sourcePoint" />
            <mxPoint x="680" y="320" as="targetPoint" />
          </mxGeometry>
        </mxCell>
        <mxCell id="NIUo2YLflTtgTmz2Ka_B-41" value="" style="endArrow=none;html=1;rounded=0;" edge="1" parent="1" target="NIUo2YLflTtgTmz2Ka_B-10">
          <mxGeometry width="50" height="50" relative="1" as="geometry">
            <mxPoint x="130" y="340" as="sourcePoint" />
            <mxPoint x="200" y="320" as="targetPoint" />
          </mxGeometry>
        </mxCell>
        <mxCell id="NIUo2YLflTtgTmz2Ka_B-42" value="" style="endArrow=none;html=1;rounded=0;" edge="1" parent="1" target="NIUo2YLflTtgTmz2Ka_B-14">
          <mxGeometry width="50" height="50" relative="1" as="geometry">
            <mxPoint x="140" y="360" as="sourcePoint" />
            <mxPoint x="220" y="350" as="targetPoint" />
          </mxGeometry>
        </mxCell>
        <mxCell id="NIUo2YLflTtgTmz2Ka_B-43" value="" style="endArrow=none;html=1;rounded=0;" edge="1" parent="1" target="NIUo2YLflTtgTmz2Ka_B-16">
          <mxGeometry width="50" height="50" relative="1" as="geometry">
            <mxPoint x="140" y="380" as="sourcePoint" />
            <mxPoint x="240" y="420" as="targetPoint" />
          </mxGeometry>
        </mxCell>
      </root>
    </mxGraphModel>
  </diagram>
</mxfile>
